Coordinates
version=1
nRows=5
nColumns=40
inDegrees=yes

Units are S.I. units (second, meters, Newtons, ...)
Angles are in degrees.

endheader
time	pelvis_tilt	pelvis_list	pelvis_rotation	pelvis_tx	pelvis_ty	pelvis_tz	hip_flexion_r	hip_adduction_r	hip_rotation_r	knee_angle_r	knee_angle_r_beta	ankle_angle_r	subtalar_angle_r	mtp_angle_r	hip_flexion_l	hip_adduction_l	hip_rotation_l	knee_angle_l	knee_angle_l_beta	ankle_angle_l	subtalar_angle_l	mtp_angle_l	lumbar_extension	lumbar_bending	lumbar_rotation	arm_flex_r	arm_add_r	arm_rot_r	elbow_flex_r	pro_sup_r	wrist_flex_r	wrist_dev_r	arm_flex_l	arm_add_l	arm_rot_l	elbow_flex_l	pro_sup_l	wrist_flex_l	wrist_dev_l
     54.95750000	     -4.61394149	     -6.09540284	      3.33062792	      0.94906441	      0.92680931	      0.51433283	     10.16774156	      4.28458580	    -16.83959681	     16.52310230	     16.52310230	     13.92646650	      2.53951059	     -4.38748381	     40.10991000	    -13.61843371	      0.16309530	     49.92613008	     49.92613008	     11.57085494	    -19.03879856	     18.06231758	    -12.98869574	      7.38003105	      5.30271112	     13.86177124	    -20.63242116	     -8.22890042	     60.41918404	     45.84646555	      0.00000000	      0.00000000	     -2.82676795	     -6.84177494	     -5.59558858	     43.65950609	     47.30491819	      0.00000000	      0.00000000
     54.96871429	     -4.64578302	     -6.08484963	      3.43071854	      0.94804708	      0.92656938	      0.51392068	      9.46744079	      4.38907711	    -16.70424880	     16.02357830	     16.02357830	     14.09840417	      2.48137613	     -4.45175058	     40.50845104	    -13.19380823	      0.47351022	     47.41436890	     47.41436890	     10.76819932	    -18.89440259	     18.18017850	    -13.01900308	      7.30967534	      5.06874492	     16.20522515	    -20.61759447	     -7.89524717	     62.62519198	     45.76415132	      0.00000000	      0.00000000	     -4.08586430	     -6.91198840	     -5.64779626	     41.50751104	     47.26692546	      0.00000000	      0.00000000
     54.97992857	     -4.73674987	     -6.15273393	      3.50270774	      0.94708500	      0.92615653	      0.51340847	      8.81350091	      4.56926077	    -16.57021871	     15.47801856	     15.47801856	     14.13302474	      2.38905598	     -4.88082921	     40.85518137	    -12.85596498	      0.77015468	     44.76058555	     44.76058555	      9.36753695	    -18.67050231	     16.64628139	    -12.95552444	      7.37732353	      5.41698728	     17.84577017	    -21.88319633	     -5.40233608	     65.66981832	     45.56375457	      0.00000000	      0.00000000	     -3.91920899	     -6.54034860	     -6.47190409	     36.54923188	     47.27922087	      0.00000000	      0.00000000
     54.99114286	     -4.79887123	     -6.14170804	      3.58403684	      0.94624185	      0.92586609	      0.51277902	      8.08632348	      4.65134167	    -16.50674368	     14.90028390	     14.90028390	     14.30908004	      2.51386677	     -4.90719999	     41.06862367	    -12.36558856	      1.17720018	     42.10992291	     42.10992291	      8.54358943	    -18.27660669	     16.70292434	    -12.95407039	      7.29326364	      5.32562884	     20.05587945	    -21.83344791	     -5.12236666	     67.56478533	     45.49817759	      0.00000000	      0.00000000	     -5.10643394	     -6.63532696	     -6.58088132	     34.89884578	     47.25738129	      0.00000000	      0.00000000
     55.00235714	     -4.85059613	     -6.25822900	      3.69674941	      0.94555112	      0.92542689	      0.51204665	      7.28488458	      4.86131309	    -16.60732105	     14.20819596	     14.20819596	     14.41642530	      2.86092548	     -5.00795727	     41.24391706	    -12.02695554	      1.59793391	     39.50966100	     39.50966100	      7.58749849	    -17.52773136	     15.86563568	    -12.93709230	      7.40182125	      5.14955187	     22.26428729	    -22.16373206	     -3.80891086	     69.87062768	     45.38304975	      0.00000000	      0.00000000	     -5.86657608	     -6.59331414	     -6.77358513	     32.21287214	     47.24386517	      0.00000000	      0.00000000
